<svg width="32" height="32" viewBox="0 0 32 32" fill="none" xmlns="http://www.w3.org/2000/svg">
<rect width="32" height="32" rx="6" fill="black"/>
<path d="M8.22184 20.4497C7.05026 19.2781 7.05027 17.3786 8.22184 16.207L13.8787 10.5502C15.0503 9.37861 16.9498 9.37861 18.1213 10.5502C19.2929 11.7218 19.2929 13.6213 18.1213 14.7928L14.5858 18.3284C14.1953 18.7189 14.1953 19.3521 14.5858 19.7426C14.9763 20.1331 15.6095 20.1331 16 19.7426L19.5355 16.207C21.4882 14.2544 21.4882 11.0886 19.5356 9.13598C17.5829 7.18335 14.4171 7.18335 12.4645 9.13598L6.80763 14.7928C4.85501 16.7455 4.855 19.9113 6.80763 21.8639C7.70379 22.7601 8.85795 23.2455 10.0305 23.3186C10.5817 23.353 11.0564 22.934 11.0908 22.3828C11.1251 21.8315 10.7061 21.3568 10.1549 21.3225C9.45014 21.2786 8.76032 20.9882 8.22184 20.4497Z" fill="white"/>
<path d="M12.4645 14.7928C10.5119 16.7455 10.5119 19.9113 12.4645 21.8639C14.4171 23.8165 17.5829 23.8165 19.5356 21.8639L25.1924 16.207C27.145 14.2544 27.145 11.0886 25.1924 9.13598C24.2962 8.23981 23.1421 7.75436 21.9695 7.68127C21.4183 7.64691 20.9436 8.0659 20.9093 8.61711C20.8749 9.16833 21.2939 9.64303 21.8451 9.67739C22.5499 9.72133 23.2397 10.0117 23.7782 10.5502C24.9498 11.7218 24.9498 13.6213 23.7782 14.7928L18.1213 20.4497C16.9498 21.6213 15.0503 21.6213 13.8787 20.4497C12.7071 19.2781 12.7071 17.3786 13.8787 16.207L17.4142 12.6715C17.8048 12.281 17.8048 11.6478 17.4142 11.2573C17.0237 10.8668 16.3905 10.8668 16 11.2573L12.4645 14.7928Z" fill="white"/>
</svg>
